[Header]                  # Header keywords are followed by a single value
FileType htr              # single word string
DataType HTRS             # Hierarchical translations followed by rotations and Scale
FileVersion 1             # integer
NumSegments   22        # integer
NumFrames  5          # integer
DataFrameRate    60      # integer
EulerRotationOrder ZYX    # one word string
CalibrationUnits mm   # one word string
RotationUnits Degrees     # one word string
GlobalAxisofGravity Y        # character, X or Y or Z
BoneLengthAxis Y
ScaleFactor 1.0000
[SegmentNames&Hierarchy]
#CHILD         PARENT
LowerTorso	GLOBAL
MidTorso1	LowerTorso
MidTorso2	MidTorso1
UpperTorso	MidTorso2
Neck	UpperTorso
Head	Neck
LCollar	UpperTorso
LUpArm	LCollar
LLowArm	LUpArm
LHand	LLowArm
RCollar	UpperTorso
RUpArm	RCollar
RLowArm	RUpArm
RHand	RLowArm
RThigh	LowerTorso
RLowLeg	RThigh
RFoot	RLowLeg
RToe	RFoot
LThigh	LowerTorso
LLowLeg	LThigh
LFoot	LLowLeg
LToe	LFoot
[BasePosition]
#SegmentName Tx, Ty, Tz, Rx, Ry, Rz, BoneLength
LowerTorso	245.857281	950.546486	248.637529	3.098927	-0.002210	0.042162	59.711333	
MidTorso1	0.000000	59.711333	0.000000	12.937915	-0.002675	-0.030860	59.789096	
MidTorso2	0.000000	59.789096	0.000000	-8.588562	0.003459	0.011437	83.428957	
UpperTorso	0.000000	83.428957	0.000000	-7.932331	-0.001012	-0.030752	241.957510	
Neck	0.000000	241.957510	0.000000	-0.094097	0.000027	0.097203	231.829248	
Head	0.000000	231.829248	0.000000	90.077927	-0.000108	-0.089730	91.574582	
LCollar	6.813599	237.360039	0.023153	2.387721	-0.015547	-90.013255	183.371476	
LUpArm	0.000000	183.371476	0.000000	5.326590	-0.698152	6.338799	275.550262	
LLowArm	0.000000	275.550262	0.000000	0.023606	-0.000027	0.019344	209.826044	
LHand	0.000000	209.826044	0.000000	0.056212	0.000012	-0.012212	145.298309	
RCollar	-7.320367	237.102711	-0.039007	12.450709	0.004248	90.115141	167.861514	
RUpArm	0.000000	167.861514	0.000000	-6.122028	-0.820027	-2.646363	291.470253	
RLowArm	0.000000	291.470253	0.000000	0.000001	0.000000	-0.000274	217.757286	
RHand	0.000000	217.757286	0.000000	0.000373	0.000000	0.000511	137.536656	
RThigh	-124.450736	-52.205152	84.621319	5.924306	0.309605	177.207098	421.029795	
RLowLeg	0.000000	421.029795	0.000000	-15.759515	-0.017515	3.120486	365.105663	
RFoot	0.000000	365.105663	0.000000	55.897303	0.149984	-4.373210	148.323736	
RToe	0.000000	148.323736	0.000000	45.100933	2.167436	3.449341	115.306227	
LThigh	124.374466	-52.388373	84.621456	5.928259	-0.221338	-178.140447	426.796764	
LLowLeg	0.000000	426.796764	0.000000	-15.759694	0.017551	-3.120303	361.153822	
LFoot	0.000000	361.153822	0.000000	55.897848	-0.150027	4.373120	146.718976	
LToe	0.000000	146.718976	0.000000	45.100748	-2.167253	-3.449489	114.060784	
#Beginning of Data. Separated by tabs
[LowerTorso]
#Fr     Tx      Ty      Tz      Rx      Ry      Rz      SF
642	-244.027359	4.901814	1094.260986	4.617349	34.687550	-1.461129	1.000000	
643	-241.791443	6.541306	1094.582031	4.095244	35.004295	-1.713418	1.000000	
644	-239.226624	8.281190	1094.027710	3.705277	35.155663	-2.016183	1.000000	
645	-236.300522	10.271940	1092.601929	3.504677	35.187050	-2.354538	1.000000	
646	-232.944092	12.519207	1090.377686	3.458891	35.144154	-2.696282	1.000000	
[MidTorso1]
#Fr     Tx      Ty      Tz      Rx      Ry      Rz      SF
642	0.000000	0.000000	0.000000	4.391626	-1.998104	1.641862	1.000000	
643	0.000000	0.000000	0.000000	4.576178	-1.613735	1.377575	1.000000	
644	0.000000	0.000000	0.000000	4.732552	-1.269788	1.124142	1.000000	
645	0.000000	0.000000	0.000000	4.829853	-1.002028	0.896668	1.000000	
646	0.000000	0.000000	0.000000	4.877914	-0.822351	0.690362	1.000000	
[MidTorso2]
#Fr     Tx      Ty      Tz      Rx      Ry      Rz      SF
642	0.000000	0.000000	0.000000	4.394074	-2.221774	1.325129	1.000000	
643	0.000000	0.000000	0.000000	4.577545	-1.802297	1.121227	1.000000	
644	0.000000	0.000000	0.000000	4.733232	-1.424399	0.922009	1.000000	
645	0.000000	0.000000	0.000000	4.830204	-1.125695	0.737075	1.000000	
646	0.000000	0.000000	0.000000	4.878185	-0.917236	0.559915	1.000000	
[UpperTorso]
#Fr     Tx      Ty      Tz      Rx      Ry      Rz      SF
642	0.000000	0.000000	0.000000	4.400051	-2.381032	1.006047	1.000000	
643	0.000000	0.000000	0.000000	4.581568	-1.937341	0.862064	1.000000	
644	0.000000	0.000000	0.000000	4.735846	-1.535490	0.716953	1.000000	
645	0.000000	0.000000	0.000000	4.831952	-1.214075	0.575036	1.000000	
646	0.000000	0.000000	0.000000	4.879480	-0.983138	0.428351	1.000000	
[Neck]
#Fr     Tx      Ty      Tz      Rx      Ry      Rz      SF
642	0.000000	0.000000	0.000000	-20.801250	-8.871316	3.241242	1.000000	
643	0.000000	0.000000	0.000000	-21.404497	-10.832260	3.833881	1.000000	
644	0.000000	0.000000	0.000000	-22.137800	-12.691887	4.421144	1.000000	
645	0.000000	0.000000	0.000000	-22.915594	-14.386370	4.921699	1.000000	
646	0.000000	0.000000	0.000000	-23.668633	-15.770205	5.322991	1.000000	
[Head]
#Fr     Tx      Ty      Tz      Rx      Ry      Rz      SF
642	0.000000	0.000000	0.000000	3.027931	1.685000	0.200549	1.000000	
643	0.000000	0.000000	0.000000	2.775190	1.840544	0.178442	1.000000	
644	0.000000	0.000000	0.000000	2.547293	2.117521	0.159797	1.000000	
645	0.000000	0.000000	0.000000	2.502109	2.534197	0.159556	1.000000	
646	0.000000	0.000000	0.000000	2.703391	2.947631	0.181828	1.000000	
[LCollar]
#Fr     Tx      Ty      Tz      Rx      Ry      Rz      SF
642	0.000000	0.000000	0.000000	8.004478	1.818732	-12.718119	1.000000	
643	0.000000	0.000000	0.000000	7.161353	1.769411	-13.806568	1.000000	
644	0.000000	0.000000	0.000000	6.071204	1.584280	-14.570562	1.000000	
645	0.000000	0.000000	0.000000	4.903291	1.306268	-14.880915	1.000000	
646	0.000000	0.000000	0.000000	3.819027	1.003479	-14.699842	1.000000	
[LUpArm]
#Fr     Tx      Ty      Tz      Rx      Ry      Rz      SF
642	0.000000	0.000000	0.000000	35.163132	20.203091	-44.559189	1.000000	
643	0.000000	0.000000	0.000000	32.948734	23.409075	-44.720894	1.000000	
644	0.000000	0.000000	0.000000	30.786995	26.625664	-45.110138	1.000000	
645	0.000000	0.000000	0.000000	28.552364	29.946138	-45.956478	1.000000	
646	0.000000	0.000000	0.000000	26.219255	33.261250	-47.441235	1.000000	
[LLowArm]
#Fr     Tx      Ty      Tz      Rx      Ry      Rz      SF
642	0.000000	0.000000	0.000000	91.511284	-0.012273	-0.012676	1.000000	
643	0.000000	0.000000	0.000000	91.736412	-0.012271	-0.012724	1.000000	
644	0.000000	0.000000	0.000000	91.709831	-0.012272	-0.012719	1.000000	
645	0.000000	0.000000	0.000000	91.350113	-0.012274	-0.012641	1.000000	
646	0.000000	0.000000	0.000000	90.596977	-0.012277	-0.012479	1.000000	
[LHand]
#Fr     Tx      Ty      Tz      Rx      Ry      Rz      SF
642	0.000000	0.000000	0.000000	19.506180	-28.438837	-2.836970	1.000000	
643	0.000000	0.000000	0.000000	19.252319	-26.248119	-2.843646	1.000000	
644	0.000000	0.000000	0.000000	19.158998	-24.510633	-3.001512	1.000000	
645	0.000000	0.000000	0.000000	19.296989	-24.164606	-2.868547	1.000000	
646	0.000000	0.000000	0.000000	19.608316	-25.228115	-2.339878	1.000000	
[RCollar]
#Fr     Tx      Ty      Tz      Rx      Ry      Rz      SF
642	0.000000	0.000000	0.000000	4.791013	-1.420711	16.479614	1.000000	
643	0.000000	0.000000	0.000000	3.593342	-1.071908	16.589327	1.000000	
644	0.000000	0.000000	0.000000	2.566857	-0.772005	16.729095	1.000000	
645	0.000000	0.000000	0.000000	1.938964	-0.587820	16.860277	1.000000	
646	0.000000	0.000000	0.000000	1.737398	-0.531146	16.995432	1.000000	
[RUpArm]
#Fr     Tx      Ty      Tz      Rx      Ry      Rz      SF
642	0.000000	0.000000	0.000000	7.691457	-9.743085	46.305744	1.000000	
643	0.000000	0.000000	0.000000	7.966212	-11.663241	46.051208	1.000000	
644	0.000000	0.000000	0.000000	8.447436	-13.805635	45.487061	1.000000	
645	0.000000	0.000000	0.000000	8.762413	-15.759142	44.810040	1.000000	
646	0.000000	0.000000	0.000000	8.632348	-17.093475	44.172688	1.000000	
[RLowArm]
#Fr     Tx      Ty      Tz      Rx      Ry      Rz      SF
642	0.000000	0.000000	0.000000	76.561974	0.000172	0.000105	1.000000	
643	0.000000	0.000000	0.000000	71.196060	0.000166	0.000091	1.000000	
644	0.000000	0.000000	0.000000	65.917183	0.000159	0.000078	1.000000	
645	0.000000	0.000000	0.000000	61.392384	0.000152	0.000067	1.000000	
646	0.000000	0.000000	0.000000	58.324444	0.000147	0.000060	1.000000	
[RHand]
#Fr     Tx      Ty      Tz      Rx      Ry      Rz      SF
642	0.000000	0.000000	0.000000	0.140381	31.590586	-13.444025	1.000000	
643	0.000000	0.000000	0.000000	0.764897	34.378178	-12.628686	1.000000	
644	0.000000	0.000000	0.000000	1.275470	37.173706	-11.978068	1.000000	
645	0.000000	0.000000	0.000000	1.598819	38.573933	-11.687430	1.000000	
646	0.000000	0.000000	0.000000	1.893736	37.768745	-11.813807	1.000000	
[RThigh]
#Fr     Tx      Ty      Tz      Rx      Ry      Rz      SF
642	0.000000	0.000000	0.000000	19.160170	20.477064	2.016665	1.000000	
643	0.000000	0.000000	0.000000	18.100996	19.336851	1.727702	1.000000	
644	0.000000	0.000000	0.000000	17.257479	18.457508	1.546626	1.000000	
645	0.000000	0.000000	0.000000	16.611370	18.078438	1.435821	1.000000	
646	0.000000	0.000000	0.000000	16.071421	18.287727	1.327814	1.000000	
[RLowLeg]
#Fr     Tx      Ty      Tz      Rx      Ry      Rz      SF
642	0.000000	0.000000	0.000000	-22.457193	0.000016	-0.000006	1.000000	
643	0.000000	0.000000	0.000000	-21.532684	0.000015	-0.000005	1.000000	
644	0.000000	0.000000	0.000000	-20.555113	0.000015	-0.000005	1.000000	
645	0.000000	0.000000	0.000000	-19.437277	0.000014	-0.000005	1.000000	
646	0.000000	0.000000	0.000000	-18.137766	0.000013	-0.000004	1.000000	
[RFoot]
#Fr     Tx      Ty      Tz      Rx      Ry      Rz      SF
642	0.000000	0.000000	0.000000	-6.819632	6.779031	-5.110207	1.000000	
643	0.000000	0.000000	0.000000	-7.502920	7.715658	-5.564401	1.000000	
644	0.000000	0.000000	0.000000	-8.178475	8.403908	-5.701941	1.000000	
645	0.000000	0.000000	0.000000	-8.830171	8.716574	-5.366830	1.000000	
646	0.000000	0.000000	0.000000	-9.507421	8.591108	-4.539490	1.000000	
[RToe]
#Fr     Tx      Ty      Tz      Rx      Ry      Rz      SF
642	0.000000	0.000000	0.000000	9.032145	0.000003	0.000005	1.000000	
643	0.000000	0.000000	0.000000	8.906732	0.000003	0.000005	1.000000	
644	0.000000	0.000000	0.000000	8.754153	0.000003	0.000004	1.000000	
645	0.000000	0.000000	0.000000	8.611196	0.000003	0.000004	1.000000	
646	0.000000	0.000000	0.000000	8.517412	0.000003	0.000004	1.000000	
[LThigh]
#Fr     Tx      Ty      Tz      Rx      Ry      Rz      SF
642	0.000000	0.000000	0.000000	18.491495	-18.462563	1.890575	1.000000	
643	0.000000	0.000000	0.000000	17.937099	-17.175682	2.206169	1.000000	
644	0.000000	0.000000	0.000000	17.370783	-16.278740	2.585789	1.000000	
645	0.000000	0.000000	0.000000	16.774534	-15.968049	3.089728	1.000000	
646	0.000000	0.000000	0.000000	16.049732	-16.115461	3.749656	1.000000	
[LLowLeg]
#Fr     Tx      Ty      Tz      Rx      Ry      Rz      SF
642	0.000000	0.000000	0.000000	-33.977123	0.000015	-0.000005	1.000000	
643	0.000000	0.000000	0.000000	-36.217197	0.000016	-0.000005	1.000000	
644	0.000000	0.000000	0.000000	-37.892673	0.000017	-0.000006	1.000000	
645	0.000000	0.000000	0.000000	-38.632214	0.000017	-0.000006	1.000000	
646	0.000000	0.000000	0.000000	-38.214951	0.000017	-0.000006	1.000000	
[LFoot]
#Fr     Tx      Ty      Tz      Rx      Ry      Rz      SF
642	0.000000	0.000000	0.000000	-2.879313	-11.115252	0.473436	1.000000	
643	0.000000	0.000000	0.000000	-2.588039	-10.357696	0.571449	1.000000	
644	0.000000	0.000000	0.000000	-2.551550	-10.105334	1.330091	1.000000	
645	0.000000	0.000000	0.000000	-2.837991	-10.088221	2.405540	1.000000	
646	0.000000	0.000000	0.000000	-3.411501	-10.113338	3.524860	1.000000	
[LToe]
#Fr     Tx      Ty      Tz      Rx      Ry      Rz      SF
642	0.000000	0.000000	0.000000	3.997639	0.000015	0.000000	1.000000	
643	0.000000	0.000000	0.000000	4.148547	0.000016	0.000000	1.000000	
644	0.000000	0.000000	0.000000	4.131505	0.000016	0.000000	1.000000	
645	0.000000	0.000000	0.000000	4.020241	0.000016	0.000000	1.000000	
646	0.000000	0.000000	0.000000	3.921002	0.000015	0.000000	1.000000	
[EndOfFile]
